<svg xmlns="http://www.w3.org/2000/svg" xmlns:xlink="http://www.w3.org/1999/xlink" width="250" zoomAndPan="magnify" viewBox="0 0 187.5 74.999997" height="100" preserveAspectRatio="xMidYMid meet" version="1.0"><defs><g/><clipPath id="58f761e761"><rect x="0" width="111" y="0" height="30"/></clipPath><clipPath id="f273009b09"><path d="M 13.398438 21.648438 L 35 21.648438 L 35 64.976562 L 13.398438 64.976562 Z M 13.398438 21.648438 " clip-rule="nonzero"/></clipPath><clipPath id="bab942e7a4"><path d="M 38 40 L 53.839844 40 L 53.839844 64.976562 L 38 64.976562 Z M 38 40 " clip-rule="nonzero"/></clipPath><clipPath id="26827487ab"><path d="M 38 21.648438 L 53 21.648438 L 53 35 L 38 35 Z M 38 21.648438 " clip-rule="nonzero"/></clipPath><clipPath id="0b3135c4e7"><path d="M 0.480469 1 L 72.695312 1 L 72.695312 29.136719 L 0.480469 29.136719 Z M 0.480469 1 " clip-rule="nonzero"/></clipPath><clipPath id="73eb42ad7e"><rect x="0" width="73" y="0" height="66"/></clipPath><clipPath id="5d4fcbbb62"><path d="M 70.554688 64.167969 L 106.238281 64.167969 L 106.238281 67.953125 L 70.554688 67.953125 Z M 70.554688 64.167969 " clip-rule="nonzero"/></clipPath><clipPath id="5b523617eb"><path d="M 0.554688 0.167969 L 36.238281 0.167969 L 36.238281 3.953125 L 0.554688 3.953125 Z M 0.554688 0.167969 " clip-rule="nonzero"/></clipPath><clipPath id="d804947766"><rect x="0" width="37" y="0" height="4"/></clipPath><clipPath id="1f99f98b37"><rect x="0" width="56" y="0" height="15"/></clipPath></defs><g transform="matrix(1, 0, 0, 1, 68, 36)"><g clip-path="url(#58f761e761)"><g fill="#000000" fill-opacity="1"><g transform="translate(1.265946, 21.250562)"><g><path d="M 11.78125 -18.265625 L 11.78125 -14.609375 L 5.484375 -14.609375 L 5.484375 -10.984375 L 11.515625 -10.984375 L 11.515625 -7.328125 L 5.484375 -7.328125 L 5.484375 -3.65625 L 11.78125 -3.65625 L 11.78125 0 L 1.328125 0 L 1.328125 -18.265625 Z M 11.78125 -18.265625 "/></g></g></g><g fill="#000000" fill-opacity="1"><g transform="translate(12.024461, 21.250562)"><g><path d="M 2.109375 -1.40625 C 1.046875 -2.5625 0.515625 -3.976562 0.515625 -5.65625 C 0.515625 -7.34375 1.046875 -8.769531 2.109375 -9.9375 C 3.171875 -11.101562 4.519531 -11.6875 6.15625 -11.6875 C 7.65625 -11.6875 8.894531 -11.210938 9.875 -10.265625 L 9.875 -19.046875 L 13.796875 -19.046875 L 13.796875 0 L 9.921875 0 L 9.921875 -1.28125 L 9.875 -1.28125 C 8.894531 -0.207031 7.65625 0.328125 6.15625 0.328125 C 4.519531 0.328125 3.171875 -0.25 2.109375 -1.40625 Z M 5.4375 -7.59375 C 4.925781 -7.09375 4.671875 -6.453125 4.671875 -5.671875 C 4.671875 -4.890625 4.914062 -4.25 5.40625 -3.75 C 5.894531 -3.257812 6.535156 -3.015625 7.328125 -3.015625 C 8.097656 -3.015625 8.726562 -3.265625 9.21875 -3.765625 C 9.71875 -4.265625 9.96875 -4.898438 9.96875 -5.671875 C 9.96875 -6.453125 9.710938 -7.09375 9.203125 -7.59375 C 8.691406 -8.09375 8.066406 -8.34375 7.328125 -8.34375 C 6.578125 -8.34375 5.945312 -8.09375 5.4375 -7.59375 Z M 5.4375 -7.59375 "/></g></g></g><g fill="#000000" fill-opacity="1"><g transform="translate(25.063224, 21.250562)"><g><path d="M 5.03125 -11.359375 L 5.03125 -5.953125 C 5.03125 -4.828125 5.195312 -4.03125 5.53125 -3.5625 C 5.875 -3.09375 6.453125 -2.859375 7.265625 -2.859375 C 8.078125 -2.859375 8.648438 -3.09375 8.984375 -3.5625 C 9.328125 -4.03125 9.5 -4.828125 9.5 -5.953125 L 9.5 -11.359375 L 13.421875 -11.359375 L 13.421875 -5 C 13.421875 -3.113281 12.925781 -1.753906 11.9375 -0.921875 C 10.957031 -0.0859375 9.394531 0.328125 7.25 0.328125 C 5.113281 0.328125 3.554688 -0.0859375 2.578125 -0.921875 C 1.597656 -1.753906 1.109375 -3.113281 1.109375 -5 L 1.109375 -11.359375 Z M 5.03125 -11.359375 "/></g></g></g><g fill="#000000" fill-opacity="1"><g transform="translate(37.50426, 21.250562)"><g><path d="M 11.890625 -18.265625 L 11.890625 -14.609375 L 5.484375 -14.609375 L 5.484375 -10.984375 L 11.40625 -10.984375 L 11.40625 -7.328125 L 5.484375 -7.328125 L 5.484375 0 L 1.328125 0 L 1.328125 -18.265625 Z M 11.890625 -18.265625 "/></g></g></g><g fill="#000000" fill-opacity="1"><g transform="translate(47.974979, 21.250562)"><g><path d="M 1.328125 0 L 1.328125 -11.359375 L 5.25 -11.359375 L 5.25 -9.71875 L 5.296875 -9.71875 C 5.316406 -9.78125 5.359375 -9.851562 5.421875 -9.9375 C 5.492188 -10.03125 5.640625 -10.1875 5.859375 -10.40625 C 6.085938 -10.625 6.328125 -10.820312 6.578125 -11 C 6.828125 -11.175781 7.148438 -11.332031 7.546875 -11.46875 C 7.941406 -11.613281 8.347656 -11.6875 8.765625 -11.6875 C 9.191406 -11.6875 9.613281 -11.628906 10.03125 -11.515625 C 10.445312 -11.398438 10.75 -11.28125 10.9375 -11.15625 L 11.25 -10.984375 L 9.609375 -7.65625 C 9.117188 -8.070312 8.441406 -8.28125 7.578125 -8.28125 C 7.097656 -8.28125 6.6875 -8.175781 6.34375 -7.96875 C 6.007812 -7.757812 5.769531 -7.507812 5.625 -7.21875 C 5.488281 -6.925781 5.390625 -6.675781 5.328125 -6.46875 C 5.273438 -6.257812 5.25 -6.097656 5.25 -5.984375 L 5.25 0 Z M 1.328125 0 "/></g></g></g><g fill="#000000" fill-opacity="1"><g transform="translate(56.918161, 21.250562)"><g><path d="M 1.703125 -17.6875 C 2.160156 -18.144531 2.707031 -18.375 3.34375 -18.375 C 3.976562 -18.375 4.523438 -18.144531 4.984375 -17.6875 C 5.441406 -17.226562 5.671875 -16.679688 5.671875 -16.046875 C 5.671875 -15.410156 5.441406 -14.863281 4.984375 -14.40625 C 4.523438 -13.957031 3.976562 -13.734375 3.34375 -13.734375 C 2.707031 -13.734375 2.160156 -13.957031 1.703125 -14.40625 C 1.242188 -14.863281 1.015625 -15.410156 1.015625 -16.046875 C 1.015625 -16.679688 1.242188 -17.226562 1.703125 -17.6875 Z M 1.328125 -11.359375 L 1.328125 0 L 5.25 0 L 5.25 -11.359375 Z M 1.328125 -11.359375 "/></g></g></g><g fill="#000000" fill-opacity="1"><g transform="translate(61.522228, 21.250562)"><g><path d="M 12.8125 -5.140625 L 4.578125 -5.140625 C 4.578125 -4.335938 4.835938 -3.742188 5.359375 -3.359375 C 5.878906 -2.984375 6.441406 -2.796875 7.046875 -2.796875 C 7.679688 -2.796875 8.179688 -2.878906 8.546875 -3.046875 C 8.910156 -3.210938 9.332031 -3.546875 9.8125 -4.046875 L 12.640625 -2.640625 C 11.460938 -0.660156 9.5 0.328125 6.75 0.328125 C 5.039062 0.328125 3.570312 -0.253906 2.34375 -1.421875 C 1.125 -2.597656 0.515625 -4.007812 0.515625 -5.65625 C 0.515625 -7.3125 1.125 -8.726562 2.34375 -9.90625 C 3.570312 -11.09375 5.039062 -11.6875 6.75 -11.6875 C 8.550781 -11.6875 10.015625 -11.164062 11.140625 -10.125 C 12.273438 -9.082031 12.84375 -7.597656 12.84375 -5.671875 C 12.84375 -5.398438 12.832031 -5.222656 12.8125 -5.140625 Z M 4.6875 -7.3125 L 9.015625 -7.3125 C 8.921875 -7.894531 8.6875 -8.34375 8.3125 -8.65625 C 7.9375 -8.976562 7.453125 -9.140625 6.859375 -9.140625 C 6.210938 -9.140625 5.695312 -8.96875 5.3125 -8.625 C 4.925781 -8.289062 4.71875 -7.851562 4.6875 -7.3125 Z M 4.6875 -7.3125 "/></g></g></g><g fill="#000000" fill-opacity="1"><g transform="translate(72.789933, 21.250562)"><g><path d="M 1.328125 0 L 1.328125 -11.359375 L 5.25 -11.359375 L 5.25 -10.15625 L 5.296875 -10.15625 C 6.304688 -11.175781 7.390625 -11.6875 8.546875 -11.6875 C 9.109375 -11.6875 9.664062 -11.613281 10.21875 -11.46875 C 10.769531 -11.320312 11.300781 -11.09375 11.8125 -10.78125 C 12.320312 -10.46875 12.734375 -10.023438 13.046875 -9.453125 C 13.367188 -8.890625 13.53125 -8.234375 13.53125 -7.484375 L 13.53125 0 L 9.609375 0 L 9.609375 -6.421875 C 9.609375 -7.015625 9.421875 -7.53125 9.046875 -7.96875 C 8.671875 -8.414062 8.179688 -8.640625 7.578125 -8.640625 C 6.984375 -8.640625 6.445312 -8.410156 5.96875 -7.953125 C 5.488281 -7.492188 5.25 -6.984375 5.25 -6.421875 L 5.25 0 Z M 1.328125 0 "/></g></g></g><g fill="#000000" fill-opacity="1"><g transform="translate(85.341655, 21.250562)"><g><path d="M 2.109375 -1.40625 C 1.046875 -2.5625 0.515625 -3.976562 0.515625 -5.65625 C 0.515625 -7.34375 1.046875 -8.769531 2.109375 -9.9375 C 3.171875 -11.101562 4.519531 -11.6875 6.15625 -11.6875 C 7.65625 -11.6875 8.894531 -11.210938 9.875 -10.265625 L 9.875 -19.046875 L 13.796875 -19.046875 L 13.796875 0 L 9.921875 0 L 9.921875 -1.28125 L 9.875 -1.28125 C 8.894531 -0.207031 7.65625 0.328125 6.15625 0.328125 C 4.519531 0.328125 3.171875 -0.25 2.109375 -1.40625 Z M 5.4375 -7.59375 C 4.925781 -7.09375 4.671875 -6.453125 4.671875 -5.671875 C 4.671875 -4.890625 4.914062 -4.25 5.40625 -3.75 C 5.894531 -3.257812 6.535156 -3.015625 7.328125 -3.015625 C 8.097656 -3.015625 8.726562 -3.265625 9.21875 -3.765625 C 9.71875 -4.265625 9.96875 -4.898438 9.96875 -5.671875 C 9.96875 -6.453125 9.710938 -7.09375 9.203125 -7.59375 C 8.691406 -8.09375 8.066406 -8.34375 7.328125 -8.34375 C 6.578125 -8.34375 5.945312 -8.09375 5.4375 -7.59375 Z M 5.4375 -7.59375 "/></g></g></g><g fill="#000000" fill-opacity="1"><g transform="translate(98.380419, 21.250562)"><g><path d="M 6.265625 -11.6875 C 6.910156 -11.6875 7.550781 -11.613281 8.1875 -11.46875 C 8.820312 -11.320312 9.296875 -11.175781 9.609375 -11.03125 L 10.078125 -10.796875 L 8.796875 -8.234375 C 7.910156 -8.703125 7.066406 -8.9375 6.265625 -8.9375 C 5.828125 -8.9375 5.515625 -8.890625 5.328125 -8.796875 C 5.140625 -8.703125 5.046875 -8.523438 5.046875 -8.265625 C 5.046875 -8.203125 5.050781 -8.140625 5.0625 -8.078125 C 5.082031 -8.023438 5.113281 -7.972656 5.15625 -7.921875 C 5.195312 -7.867188 5.234375 -7.820312 5.265625 -7.78125 C 5.304688 -7.75 5.375 -7.707031 5.46875 -7.65625 C 5.5625 -7.613281 5.628906 -7.582031 5.671875 -7.5625 C 5.722656 -7.539062 5.804688 -7.503906 5.921875 -7.453125 C 6.046875 -7.410156 6.132812 -7.378906 6.1875 -7.359375 C 6.25 -7.335938 6.347656 -7.304688 6.484375 -7.265625 C 6.628906 -7.222656 6.738281 -7.191406 6.8125 -7.171875 C 7.269531 -7.035156 7.671875 -6.882812 8.015625 -6.71875 C 8.359375 -6.5625 8.71875 -6.34375 9.09375 -6.0625 C 9.46875 -5.78125 9.753906 -5.425781 9.953125 -5 C 10.160156 -4.570312 10.265625 -4.085938 10.265625 -3.546875 C 10.265625 -0.960938 8.472656 0.328125 4.890625 0.328125 C 4.078125 0.328125 3.304688 0.203125 2.578125 -0.046875 C 1.847656 -0.296875 1.320312 -0.546875 1 -0.796875 L 0.515625 -1.203125 L 2.109375 -3.875 C 2.222656 -3.769531 2.375 -3.644531 2.5625 -3.5 C 2.757812 -3.363281 3.109375 -3.171875 3.609375 -2.921875 C 4.109375 -2.679688 4.546875 -2.5625 4.921875 -2.5625 C 5.734375 -2.5625 6.140625 -2.835938 6.140625 -3.390625 C 6.140625 -3.640625 6.035156 -3.832031 5.828125 -3.96875 C 5.617188 -4.113281 5.265625 -4.273438 4.765625 -4.453125 C 4.273438 -4.628906 3.890625 -4.789062 3.609375 -4.9375 C 2.898438 -5.300781 2.335938 -5.71875 1.921875 -6.1875 C 1.515625 -6.65625 1.3125 -7.269531 1.3125 -8.03125 C 1.3125 -9.1875 1.753906 -10.082031 2.640625 -10.71875 C 3.535156 -11.363281 4.742188 -11.6875 6.265625 -11.6875 Z M 6.265625 -11.6875 "/></g></g></g></g></g><g transform="matrix(1, 0, 0, 1, 7, 3)"><g clip-path="url(#73eb42ad7e)"><g clip-path="url(#f273009b09)"><path fill="#ff6f3c" d="M 26.742188 23.539062 C 24.464844 24.539062 22.382812 25.886719 20.554688 27.546875 C 16.859375 30.898438 14.410156 35.386719 13.664062 40.183594 C 13.496094 41.257812 13.410156 42.355469 13.410156 43.453125 C 13.410156 45.109375 13.601562 46.757812 13.984375 48.359375 C 15.058594 52.847656 17.542969 56.839844 21.167969 59.902344 C 24.828125 62.988281 29.320312 64.839844 34.160156 65.253906 L 34.234375 65.261719 L 34.234375 56.730469 L 34.175781 56.722656 C 29.59375 55.9375 25.726562 52.757812 24.0625 48.414062 L 34.234375 48.414062 L 34.234375 40.125 L 23.664062 40.125 C 25.023438 35.203125 29.140625 31.476562 34.175781 30.613281 L 34.234375 30.605469 L 34.234375 21.648438 L 34.15625 21.65625 C 31.582031 21.875 29.089844 22.511719 26.742188 23.539062 Z M 26.742188 23.539062 " fill-opacity="1" fill-rule="nonzero"/></g><g clip-path="url(#bab942e7a4)"><path fill="#0056b3" d="M 53.714844 40.125 L 38.414062 40.125 L 38.414062 48.414062 L 45 48.414062 L 45 53.765625 C 43.136719 55.351562 40.882812 56.382812 38.472656 56.753906 L 38.414062 56.765625 L 38.414062 65.242188 L 38.492188 65.234375 C 40.984375 64.996094 43.230469 64.476562 45.167969 63.691406 C 48.21875 62.453125 51.371094 61.171875 53.765625 58.4375 L 53.785156 58.417969 Z M 53.714844 40.125 " fill-opacity="1" fill-rule="nonzero"/></g><g clip-path="url(#26827487ab)"><path fill="#0056b3" d="M 45.027344 33.585938 C 45.449219 33.949219 45.855469 34.34375 46.234375 34.757812 L 46.289062 34.820312 L 52.136719 27.777344 L 52.085938 27.730469 C 50.050781 25.839844 47.699219 24.34375 45.097656 23.289062 C 42.992188 22.433594 40.769531 21.890625 38.492188 21.675781 L 38.414062 21.667969 L 38.414062 30.570312 L 38.472656 30.578125 C 40.890625 30.953125 43.15625 31.992188 45.027344 33.585938 Z M 45.027344 33.585938 " fill-opacity="1" fill-rule="nonzero"/></g><g clip-path="url(#0b3135c4e7)"><path fill="#1c1f26" d="M 72.160156 9.734375 L 38.339844 1.269531 C 37.207031 0.984375 36.023438 0.984375 34.910156 1.269531 L 1.066406 9.734375 C 0.476562 9.878906 0.476562 10.730469 1.066406 10.871094 L 17.695312 15.035156 C 27.105469 12.242188 37.230469 12.101562 46.855469 13.804688 C 37.109375 12.714844 26.847656 13.566406 17.695312 17.089844 L 17.695312 21.84375 C 17.695312 22.246094 18.074219 22.507812 18.449219 22.390625 C 23.84375 20.734375 30.039062 19.765625 36.613281 19.765625 C 43.191406 19.765625 49.386719 20.734375 54.800781 22.390625 C 55.179688 22.507812 55.535156 22.246094 55.535156 21.84375 L 55.535156 15.035156 L 62.796875 13.210938 L 62.796875 25.9375 L 62.675781 25.9375 C 62.417969 25.9375 62.203125 26.148438 62.203125 26.410156 L 62.203125 28.75 C 62.203125 29.011719 62.417969 29.222656 62.675781 29.222656 L 64.097656 29.222656 C 64.355469 29.222656 64.570312 29.011719 64.570312 28.75 L 64.570312 26.410156 C 64.570312 26.148438 64.355469 25.9375 64.097656 25.9375 L 63.976562 25.9375 L 63.976562 12.929688 L 72.160156 10.871094 C 72.777344 10.730469 72.777344 9.878906 72.160156 9.734375 Z M 72.160156 9.734375 " fill-opacity="1" fill-rule="nonzero"/></g></g></g><g clip-path="url(#5d4fcbbb62)"><g transform="matrix(1, 0, 0, 1, 70, 64)"><g clip-path="url(#d804947766)"><g clip-path="url(#5b523617eb)"><path fill="#000000" d="M 0.554688 0.167969 L 36.238281 0.167969 L 36.238281 3.953125 L 0.554688 3.953125 Z M 0.554688 0.167969 " fill-opacity="1" fill-rule="nonzero"/></g></g></g></g><g transform="matrix(1, 0, 0, 1, 110, 58)"><g clip-path="url(#1f99f98b37)"><g fill="#2e2e2e" fill-opacity="1"><g transform="translate(0.909139, 10.587018)"><g><path d="M 3.5625 0.125 C 2.9375 0.125 2.382812 -0.0078125 1.90625 -0.28125 C 1.425781 -0.550781 1.050781 -0.921875 0.78125 -1.390625 C 0.507812 -1.867188 0.375 -2.414062 0.375 -3.03125 C 0.375 -3.65625 0.503906 -4.203125 0.765625 -4.671875 C 1.035156 -5.148438 1.410156 -5.519531 1.890625 -5.78125 C 2.367188 -6.050781 2.914062 -6.1875 3.53125 -6.1875 C 4.019531 -6.1875 4.472656 -6.097656 4.890625 -5.921875 C 5.304688 -5.753906 5.660156 -5.507812 5.953125 -5.1875 C 6.242188 -4.875 6.453125 -4.503906 6.578125 -4.078125 L 5.09375 -4.078125 C 4.945312 -4.347656 4.738281 -4.554688 4.46875 -4.703125 C 4.195312 -4.847656 3.894531 -4.921875 3.5625 -4.921875 C 3.207031 -4.921875 2.894531 -4.835938 2.625 -4.671875 C 2.351562 -4.515625 2.140625 -4.296875 1.984375 -4.015625 C 1.828125 -3.734375 1.75 -3.40625 1.75 -3.03125 C 1.75 -2.664062 1.820312 -2.34375 1.96875 -2.0625 C 2.125 -1.78125 2.335938 -1.554688 2.609375 -1.390625 C 2.878906 -1.222656 3.203125 -1.140625 3.578125 -1.140625 C 4.015625 -1.140625 4.378906 -1.253906 4.671875 -1.484375 C 4.972656 -1.710938 5.164062 -2.007812 5.25 -2.375 L 3.28125 -2.375 L 3.28125 -3.4375 L 6.71875 -3.4375 C 6.75 -2.914062 6.695312 -2.4375 6.5625 -2 C 6.425781 -1.570312 6.21875 -1.195312 5.9375 -0.875 C 5.65625 -0.5625 5.3125 -0.316406 4.90625 -0.140625 C 4.507812 0.0351562 4.0625 0.125 3.5625 0.125 Z M 3.5625 0.125 "/></g></g></g><g fill="#2e2e2e" fill-opacity="1"><g transform="translate(10.086189, 10.587018)"><g><path d="M 0.734375 0 L 0.734375 -6.0625 L 2.109375 -6.0625 L 2.109375 -1.296875 L 4.765625 -1.296875 L 4.765625 0 Z M 0.734375 0 "/></g></g></g><g fill="#2e2e2e" fill-opacity="1"><g transform="translate(17.183448, 10.587018)"><g><path d="M 3.609375 0.125 C 2.972656 0.125 2.410156 -0.0078125 1.921875 -0.28125 C 1.441406 -0.550781 1.0625 -0.921875 0.78125 -1.390625 C 0.507812 -1.867188 0.375 -2.414062 0.375 -3.03125 C 0.375 -3.65625 0.507812 -4.203125 0.78125 -4.671875 C 1.0625 -5.148438 1.441406 -5.519531 1.921875 -5.78125 C 2.410156 -6.050781 2.972656 -6.1875 3.609375 -6.1875 C 4.242188 -6.1875 4.800781 -6.050781 5.28125 -5.78125 C 5.769531 -5.519531 6.148438 -5.148438 6.421875 -4.671875 C 6.703125 -4.203125 6.84375 -3.65625 6.84375 -3.03125 C 6.84375 -2.414062 6.703125 -1.867188 6.421875 -1.390625 C 6.148438 -0.921875 5.769531 -0.550781 5.28125 -0.28125 C 4.800781 -0.0078125 4.242188 0.125 3.609375 0.125 Z M 1.78125 -3.03125 C 1.78125 -2.664062 1.859375 -2.34375 2.015625 -2.0625 C 2.171875 -1.789062 2.382812 -1.578125 2.65625 -1.421875 C 2.925781 -1.265625 3.242188 -1.1875 3.609375 -1.1875 C 3.972656 -1.1875 4.289062 -1.265625 4.5625 -1.421875 C 4.84375 -1.578125 5.054688 -1.789062 5.203125 -2.0625 C 5.359375 -2.34375 5.4375 -2.664062 5.4375 -3.03125 C 5.4375 -3.394531 5.359375 -3.710938 5.203125 -3.984375 C 5.054688 -4.265625 4.84375 -4.484375 4.5625 -4.640625 C 4.289062 -4.796875 3.972656 -4.875 3.609375 -4.875 C 3.242188 -4.875 2.925781 -4.796875 2.65625 -4.640625 C 2.382812 -4.484375 2.171875 -4.265625 2.015625 -3.984375 C 1.859375 -3.710938 1.78125 -3.394531 1.78125 -3.03125 Z M 1.78125 -3.03125 "/></g></g></g><g fill="#2e2e2e" fill-opacity="1"><g transform="translate(26.507812, 10.587018)"><g><path d="M 0.734375 0 L 0.734375 -6.0625 L 3.4375 -6.0625 C 4.0625 -6.0625 4.554688 -5.914062 4.921875 -5.625 C 5.285156 -5.332031 5.46875 -4.9375 5.46875 -4.4375 C 5.46875 -4.15625 5.398438 -3.898438 5.265625 -3.671875 C 5.140625 -3.441406 4.960938 -3.257812 4.734375 -3.125 C 5.023438 -3 5.25 -2.8125 5.40625 -2.5625 C 5.5625 -2.3125 5.640625 -2.023438 5.640625 -1.703125 C 5.640625 -1.359375 5.550781 -1.054688 5.375 -0.796875 C 5.207031 -0.546875 4.96875 -0.347656 4.65625 -0.203125 C 4.351562 -0.0664062 3.992188 0 3.578125 0 Z M 2.09375 -1.09375 L 3.375 -1.09375 C 3.644531 -1.09375 3.851562 -1.15625 4 -1.28125 C 4.15625 -1.40625 4.234375 -1.585938 4.234375 -1.828125 C 4.234375 -2.054688 4.15625 -2.234375 4 -2.359375 C 3.851562 -2.484375 3.644531 -2.546875 3.375 -2.546875 L 2.09375 -2.546875 Z M 2.09375 -3.59375 L 3.234375 -3.59375 C 3.503906 -3.59375 3.707031 -3.65625 3.84375 -3.78125 C 3.988281 -3.90625 4.0625 -4.078125 4.0625 -4.296875 C 4.0625 -4.515625 3.988281 -4.679688 3.84375 -4.796875 C 3.707031 -4.921875 3.503906 -4.984375 3.234375 -4.984375 L 2.09375 -4.984375 Z M 2.09375 -3.59375 "/></g></g></g><g fill="#2e2e2e" fill-opacity="1"><g transform="translate(34.584301, 10.587018)"><g><path d="M 0.078125 0 L 2.484375 -6.0625 L 3.84375 -6.0625 L 6.25 0 L 4.78125 0 L 4.375 -1.046875 L 1.953125 -1.046875 L 1.546875 0 Z M 2.3125 -2.140625 L 4.03125 -2.140625 L 3.171875 -4.359375 Z M 2.3125 -2.140625 "/></g></g></g><g fill="#2e2e2e" fill-opacity="1"><g transform="translate(43.016088, 10.587018)"><g><path d="M 0.734375 0 L 0.734375 -6.0625 L 2.109375 -6.0625 L 2.109375 -1.296875 L 4.765625 -1.296875 L 4.765625 0 Z M 0.734375 0 "/></g></g></g><g fill="#2e2e2e" fill-opacity="1"><g transform="translate(50.113348, 10.587018)"><g><path d="M 1.15625 0.09375 C 0.925781 0.09375 0.734375 0.0195312 0.578125 -0.125 C 0.429688 -0.269531 0.359375 -0.457031 0.359375 -0.6875 C 0.359375 -0.90625 0.429688 -1.085938 0.578125 -1.234375 C 0.734375 -1.390625 0.925781 -1.46875 1.15625 -1.46875 C 1.394531 -1.46875 1.585938 -1.390625 1.734375 -1.234375 C 1.890625 -1.085938 1.96875 -0.90625 1.96875 -0.6875 C 1.96875 -0.457031 1.890625 -0.269531 1.734375 -0.125 C 1.585938 0.0195312 1.394531 0.09375 1.15625 0.09375 Z M 1.15625 0.09375 "/></g></g></g></g></g></svg>