<svg xmlns="http://www.w3.org/2000/svg" xmlns:xlink="http://www.w3.org/1999/xlink" width="512" zoomAndPan="magnify" viewBox="0 0 384 383.999986" height="512" preserveAspectRatio="xMidYMid meet" version="1.0"><defs><clipPath id="d8e26a649b"><path d="M 56.589844 90.992188 L 149 90.992188 L 149 282.992188 L 56.589844 282.992188 Z M 56.589844 90.992188 " clip-rule="nonzero"/></clipPath><clipPath id="25e97af21b"><path d="M 166 172 L 234.722656 172 L 234.722656 282.992188 L 166 282.992188 Z M 166 172 " clip-rule="nonzero"/></clipPath><clipPath id="8be4b64cef"><path d="M 0.121094 0.121094 L 317.640625 0.121094 L 317.640625 124.667969 L 0.121094 124.667969 Z M 0.121094 0.121094 " clip-rule="nonzero"/></clipPath><clipPath id="fae8a47c48"><rect x="0" width="318" y="0" height="284"/></clipPath></defs><g transform="matrix(1, 0, 0, 1, 33, 57)"><g clip-path="url(#fae8a47c48)"><g clip-path="url(#d8e26a649b)"><path fill="#ff6f3c" d="M 115.417969 99.324219 C 105.367188 103.734375 96.191406 109.675781 88.128906 116.984375 C 71.847656 131.757812 61.058594 151.542969 57.761719 172.699219 C 57.019531 177.425781 56.644531 182.269531 56.644531 187.105469 C 56.644531 194.398438 57.496094 201.671875 59.179688 208.726562 C 63.902344 228.519531 74.855469 246.117188 90.847656 259.605469 C 106.972656 273.207031 126.773438 281.367188 148.101562 283.199219 L 148.441406 283.226562 L 148.441406 245.632812 L 148.179688 245.589844 C 127.988281 242.128906 110.941406 228.117188 103.59375 208.96875 L 148.441406 208.96875 L 148.441406 172.4375 L 101.84375 172.4375 C 107.84375 150.746094 125.988281 134.308594 148.175781 130.507812 L 148.4375 130.464844 L 148.4375 90.992188 L 148.097656 91.023438 C 136.75 91.996094 125.753906 94.792969 115.417969 99.324219 Z M 115.417969 99.324219 " fill-opacity="1" fill-rule="nonzero"/></g><g clip-path="url(#25e97af21b)"><path fill="#0056b3" d="M 234.296875 172.433594 L 166.855469 172.433594 L 166.855469 208.960938 L 195.894531 208.960938 L 195.894531 232.5625 C 187.679688 239.542969 177.734375 244.097656 167.121094 245.738281 L 166.855469 245.777344 L 166.855469 283.140625 L 167.195312 283.109375 C 178.183594 282.070312 188.085938 279.78125 196.632812 276.3125 C 210.078125 270.851562 223.980469 265.207031 234.527344 253.15625 L 234.605469 253.066406 Z M 234.296875 172.433594 " fill-opacity="1" fill-rule="nonzero"/></g><path fill="#0056b3" d="M 196.003906 143.617188 C 197.871094 145.210938 199.664062 146.949219 201.332031 148.78125 L 201.574219 149.042969 L 227.339844 118.007812 L 227.125 117.804688 C 218.152344 109.464844 207.789062 102.878906 196.324219 98.222656 C 187.046875 94.457031 177.25 92.0625 167.195312 91.109375 L 166.855469 91.078125 L 166.855469 130.316406 L 167.121094 130.355469 C 177.777344 132 187.769531 136.589844 196.003906 143.617188 Z M 196.003906 143.617188 " fill-opacity="1" fill-rule="nonzero"/><g clip-path="url(#8be4b64cef)"><path fill="#ffffff" d="M 315.589844 38.488281 L 166.527344 1.171875 C 161.523438 -0.0820312 156.3125 -0.0820312 151.414062 1.171875 L 2.25 38.488281 C -0.355469 39.113281 -0.355469 42.863281 2.25 43.492188 L 75.527344 61.835938 C 117.015625 49.535156 161.628906 48.910156 204.054688 56.417969 C 161.109375 51.621094 115.867188 55.375 75.527344 70.90625 L 75.527344 91.859375 C 75.527344 93.628906 77.195312 94.777344 78.863281 94.253906 C 102.628906 86.957031 129.941406 82.683594 158.917969 82.683594 C 187.898438 82.683594 215.207031 86.957031 239.078125 94.253906 C 240.746094 94.777344 242.308594 93.628906 242.308594 91.859375 L 242.308594 61.835938 L 274.308594 53.808594 L 274.308594 109.890625 L 273.789062 109.890625 C 272.640625 109.890625 271.703125 110.828125 271.703125 111.976562 L 271.703125 122.292969 C 271.703125 123.441406 272.640625 124.378906 273.789062 124.378906 L 280.042969 124.378906 C 281.191406 124.378906 282.128906 123.441406 282.128906 122.292969 L 282.128906 111.976562 C 282.128906 110.828125 281.191406 109.890625 280.042969 109.890625 L 279.519531 109.890625 L 279.519531 52.558594 L 315.585938 43.492188 C 318.296875 42.867188 318.296875 39.113281 315.585938 38.488281 Z M 315.589844 38.488281 " fill-opacity="1" fill-rule="nonzero"/></g></g></g></svg>